<?xml version="1.0" encoding="UTF-8"?>
<svg version="1.1" xmlns="http://www.w3.org/2000/svg" width="457" height="707">
<path d="M0 0 C7.35594282 5.47993056 12.62607639 13.05700384 18.17333984 20.26611328 C19.80697059 22.37953748 21.45623766 24.47993039 23.109375 26.578125 C30.70667443 36.23976911 38.01226628 46.07249907 45.15039062 56.07714844 C46.71561061 58.2583026 48.29770655 60.4259772 49.88671875 62.58984375 C58.90598065 74.89745079 67.36233165 87.55411027 75.74609375 100.30078125 C76.24318848 101.05149902 76.7402832 101.8022168 77.25244141 102.57568359 C91.59345174 124.23427315 104.77242462 146.60586615 117.17871094 169.41992188 C118.51734489 171.88033942 119.86767971 174.33372589 121.22265625 176.78515625 C145.09786894 220.40873972 164.7728009 269.76081121 170.74609375 319.30078125 C170.88748779 320.42419922 170.88748779 320.42419922 171.03173828 321.5703125 C179.3124415 397.5335435 157.29194425 476.79684353 133.74609375 548.30078125 C133.46916687 549.14251892 133.19223999 549.98425659 132.90692139 550.85150146 C118.31770556 595.11136962 101.85222085 638.73574423 82.55859375 681.17578125 C82.12514648 682.13218506 81.69169922 683.08858887 81.24511719 684.07397461 C77.76602132 691.59106001 74.4745738 698.48654063 66.74609375 702.30078125 C59.85192555 704.50149152 53.55851778 704.8871027 46.74609375 702.30078125 C39.14840033 698.20971556 35.667793 693.13369943 33.12890625 685.15625 C32.15746153 677.91006543 34.05246782 671.63429257 37.0703125 665.12109375 C37.40826843 664.36333649 37.74622437 663.60557922 38.09442139 662.82485962 C38.82012882 661.19943592 39.55108112 659.57634536 40.28683472 657.95544434 C42.25572254 653.61222776 44.179335 649.24902469 46.10546875 644.88671875 C46.49806381 643.9994812 46.89065887 643.11224365 47.29515076 642.19812012 C57.38965703 619.29824218 66.26834968 595.83925551 74.74609375 572.30078125 C75.21678395 571.00140119 75.68765601 569.702087 76.15869141 568.40283203 C94.69205027 517.20728587 110.09294406 464.99713312 119.12109375 411.23828125 C119.24278931 410.51881317 119.36448486 409.79934509 119.48986816 409.05807495 C122.46579415 391.28876665 124.10315625 373.76858765 124.06176758 355.73999023 C124.05859961 352.86859354 124.08222026 349.99822441 124.10742188 347.12695312 C124.15065604 334.59854819 123.04953506 322.61332799 120.74609375 310.30078125 C120.53766846 309.18195557 120.32924316 308.06312988 120.11450195 306.91040039 C119.54811081 304.10670536 118.92118473 301.33018749 118.24609375 298.55078125 C117.99891602 297.53258301 117.75173828 296.51438477 117.49707031 295.46533203 C111.80586557 273.04573925 103.52612903 251.23215532 93.74609375 230.30078125 C93.28090332 229.30030762 92.81571289 228.29983398 92.33642578 227.26904297 C80.76393645 202.4962601 67.92700363 178.66432329 53.74609375 155.30078125 C53.16682129 154.34365234 52.58754883 153.38652344 51.99072266 152.40039062 C43.93522165 139.12360012 35.46128477 126.15274809 26.74609375 113.30078125 C26.01543701 112.22038574 26.01543701 112.22038574 25.27001953 111.11816406 C12.06695059 91.62549875 -1.91755392 72.68803283 -16.37890625 54.11328125 C-16.96639648 53.35740723 -17.55388672 52.6015332 -18.15917969 51.82275391 C-20.83710654 48.38216426 -23.5262709 44.95290424 -26.2578125 41.5546875 C-32.03774362 34.31751066 -37.00407526 27.98424247 -36.53125 18.30078125 C-35.4900725 10.79257167 -31.81139077 5.3583247 -26.25390625 0.30078125 C-18.73692528 -4.51008657 -7.68126234 -4.64708387 0 0 Z " fill="#FFF" transform="translate(36.25390625,2.69921875)"/>
<path d="M0 0 C6.59963166 4.05587642 10.19520616 9.4320599 12.09375 16.890625 C13.24019932 24.07798033 11.58843327 30.41464179 7.5 36.4375 C5.46259189 38.94507921 3.37774634 41.39546998 1.25537109 43.83081055 C-5.1041334 51.17685092 -10.78484469 59.03468775 -16.56494141 66.83789062 C-18.43937418 69.35605366 -20.33098054 71.86007474 -22.23046875 74.359375 C-31.6793883 86.8086034 -40.6852515 99.53223105 -49.5 112.4375 C-49.96712402 113.12086426 -50.43424805 113.80422852 -50.91552734 114.50830078 C-53.82780025 118.78531132 -56.67614766 123.10170196 -59.5 127.4375 C-60.07685547 128.32066895 -60.65371094 129.20383789 -61.24804688 130.11376953 C-71.13783864 145.2923408 -80.54756261 160.68826294 -89.5 176.4375 C-89.95568359 177.23704102 -90.41136719 178.03658203 -90.88085938 178.86035156 C-93.81285553 184.02128579 -96.6753762 189.21711628 -99.5 194.4375 C-100.18328369 195.69336914 -100.18328369 195.69336914 -100.88037109 196.97460938 C-147.7253583 283.47228613 -156.14637064 363.72726916 -122.90234375 500.37890625 C-120.20630292 509.43139105 -117.37572953 518.44070815 -114.5 527.4375 C-114.26817017 528.16457153 -114.03634033 528.89164307 -113.79748535 529.64074707 C-99.3412872 574.9082168 -82.06361122 619.08137399 -62.85302734 662.52807617 C-62.56791794 663.17339294 -62.28280853 663.81870972 -61.98905945 664.48358154 C-61.21976957 666.22273621 -60.44822282 667.96089209 -59.67651367 669.69897461 C-56.81666165 676.3557416 -56.24263873 683.22475219 -58.3359375 690.23828125 C-61.04875891 696.23744001 -64.53406335 700.52036969 -70.5 703.4375 C-77.36735451 705.70971183 -83.70023535 706.01901535 -90.5 703.4375 C-99.92390254 698.36309094 -103.40920067 690.06491794 -107.5625 680.6875 C-107.85390869 680.03645294 -108.14531738 679.38540588 -108.44555664 678.71463013 C-145.65156547 595.41398686 -177.46454763 506.28150474 -173.13720703 238.82519531 C-158.3175359 200.60686941 -138.92678699 164.3618283 -117.41113281 129.54003906 C-115.725438 126.80347677 -114.05625924 124.05818971 -112.3984375 121.3046875 C-106.07083449 110.80431691 -99.38926951 100.5772918 -92.5 90.4375 C-92.04125488 89.75977539 -91.58250977 89.08205078 -91.10986328 88.38378906 C-83.78790107 77.57881926 -76.19408048 66.97984865 -68.5 56.4375 C-67.9337793 55.65971191 -67.36755859 54.88192383 -66.78417969 54.08056641 C-56.03010749 39.3218016 -45.01287253 24.76920009 -33.3671875 10.69921875 C-32.04601805 9.09889007 -30.76004483 7.46919929 -29.5 5.8203125 C-22.36072429 -2.68546521 -10.06379142 -4.44274861 0 0 Z " fill="#FFF" transform="translate(444.5,1.5625)"/>
<path d="M0 0 C1.75570312 -0.04253906 1.75570312 -0.04253906 3.546875 -0.0859375 C11.69334844 0.92807502 16.93363858 5.46742384 22.625 11.0625 C23.9420648 12.3248905 25.25977316 13.5866099 26.578125 14.84765625 C27.52461914 15.7605542 27.52461914 15.7605542 28.49023438 16.69189453 C30.74129665 18.84489444 33.04888202 20.92853873 35.375 23 C39.72200619 26.88639627 44.01084317 30.83195281 48.29125977 34.79125977 C51.95711171 38.18202506 55.6306656 41.56409785 59.3125 44.9375 C59.79912109 45.38432129 60.28574219 45.83114258 60.78710938 46.29150391 C63.33281098 48.62731157 65.88771441 50.95189747 68.45703125 53.26171875 C84.23720992 67.48919535 84.23720992 67.48919535 85.7265625 76.14453125 C86.23294946 86.52546396 82.28711222 93.70194409 77.25 102.375 C76.74597656 103.2505957 76.24195313 104.12619141 75.72265625 105.02832031 C72.82882913 110.04394034 69.9028394 115.0397974 66.9609375 120.02734375 C63.2976814 126.25910078 59.76177851 132.55695843 56.25 138.875 C51.09414257 148.13939753 45.82219505 157.32671512 40.44287109 166.46313477 C37.48386539 171.50010327 34.5781529 176.557507 31.76171875 181.67578125 C31.19267822 182.70493652 30.6236377 183.7340918 30.03735352 184.79443359 C28.96938573 186.73336996 27.91047712 188.67733914 26.86303711 190.62744141 C22.58426054 198.37765159 17.09311181 207.54520422 8.25 210.375 C1.20311437 211.92187733 -5.20150957 211.56474856 -11.75 208.375 C-18.07862363 204.19328003 -21.00849864 198.34625129 -24.625 191.8125 C-25.61580877 190.05859228 -26.60663159 188.30469235 -27.59819031 186.5512085 C-28.63173258 184.71942568 -29.65989341 182.88470787 -30.68701172 181.04931641 C-33.3276235 176.33679452 -36.0154985 171.65178716 -38.70166016 166.96508789 C-40.71000226 163.46073585 -42.71332621 159.95356427 -44.71484375 156.4453125 C-48.39216982 150.0010442 -52.07288803 143.55871949 -55.75457764 137.11694336 C-56.74368979 135.38604258 -57.73244176 133.654936 -58.72119141 131.92382812 C-61.83797919 126.4673337 -64.9568918 121.01209522 -68.08328247 115.56109619 C-69.55610557 112.99286516 -71.02773195 110.42394936 -72.49926758 107.85498047 C-73.19951633 106.63328357 -73.90034804 105.41192061 -74.60180664 104.19091797 C-75.57586875 102.49531965 -76.54774166 100.79846428 -77.51953125 99.1015625 C-78.34868042 97.65644287 -78.34868042 97.65644287 -79.19458008 96.18212891 C-83.728569 87.99945671 -86.09158565 81.43075495 -83.625 72.125 C-81.2498175 65.29768168 -76.67281725 61.1856397 -71.3125 56.6171875 C-67.92691208 53.65479807 -64.65479004 50.57857093 -61.375 47.5 C-56.38675775 42.82398204 -51.36300351 38.19788393 -46.265625 33.640625 C-43.27943917 30.95120298 -40.32555307 28.22838461 -37.375 25.5 C-36.82803467 24.99500977 -36.28106934 24.49001953 -35.7175293 23.96972656 C-32.98379865 21.44479741 -30.25540254 18.91445197 -27.53515625 16.375 C-10.05059686 0.10972267 -10.05059686 0.10972267 0 0 Z M-5.5625 60.6875 C-6.7472413 61.7892287 -7.93214077 62.89078734 -9.1171875 63.9921875 C-9.72143555 64.55518555 -10.32568359 65.11818359 -10.94824219 65.69824219 C-13.6858599 68.24593303 -16.43452778 70.78142095 -19.1875 73.3125 C-20.11433594 74.16714844 -21.04117188 75.02179688 -21.99609375 75.90234375 C-24.85767749 78.47168064 -27.78129564 80.9309562 -30.75 83.375 C-30.0664414 86.92386497 -28.6181737 89.68207855 -26.86328125 92.828125 C-26.26088623 93.9116626 -25.65849121 94.9952002 -25.0378418 96.11157227 C-24.37971506 97.282895 -23.7212604 98.45403353 -23.0625 99.625 C-22.39027694 100.82668341 -21.71815903 102.02842565 -21.04614258 103.23022461 C-16.40918642 111.50385536 -11.70016776 119.7355816 -6.9375 127.9375 C-6.34557861 128.9594043 -5.75365723 129.98130859 -5.14379883 131.03417969 C-4.5948999 131.97293945 -4.04600098 132.91169922 -3.48046875 133.87890625 C-2.99989014 134.70205322 -2.51931152 135.5252002 -2.02416992 136.37329102 C-0.77650559 138.49303255 -0.77650559 138.49303255 1.25 140.375 C1.82161865 139.33666016 1.82161865 139.33666016 2.40478516 138.27734375 C4.22516253 134.97488441 6.04910996 131.67441341 7.875 128.375 C8.20825287 127.77241364 8.54150574 127.16982727 8.88485718 126.54898071 C14.37973326 116.62388237 20.02586711 106.80157783 25.85595703 97.06835938 C28.508013 92.59403659 30.91488284 88.45184677 32.25 83.375 C31.84652344 83.03210938 31.44304687 82.68921875 31.02734375 82.3359375 C26.15373767 78.13490975 21.44239541 73.77567932 16.75 69.375 C6.23209318 56.72258247 6.23209318 56.72258247 -5.5625 60.6875 Z " fill="#FFF" transform="translate(227.75,4.625)"/>
</svg>
