<?xml version="1.0" encoding="UTF-8"?>
<svg version="1.1" xmlns="http://www.w3.org/2000/svg" width="160" height="247">
<path d="M0 0 C2.7088483 0.77268788 3.746778 1.40166477 5.3828125 3.6796875 C6.56676945 7.20434096 6.36159106 10.11447479 5.3828125 13.6796875 C2.50938001 17.82513332 -0.79867015 21.42711737 -4.22363281 25.11767578 C-7.40323115 28.68163341 -9.9847753 32.70568782 -12.6171875 36.6796875 C-14.69378394 39.79458216 -16.75496243 42.86459596 -18.9921875 45.8671875 C-21.73443854 49.67447181 -23.88953446 53.74142899 -26.08984375 57.87890625 C-27.47528011 60.41946346 -28.95273231 62.85574388 -30.4921875 65.3046875 C-34.82566614 72.44352336 -38.19313715 80.07565287 -41.6171875 87.6796875 C-42.03226563 88.58847656 -42.44734375 89.49726562 -42.875 90.43359375 C-53.18496038 114.4225173 -51.90333762 142.10422819 -43.32617188 166.49755859 C-42.62407137 168.65850017 -42.124171 170.78307949 -41.66796875 173.0078125 C-40.48528444 178.62525845 -38.64641066 183.99907558 -36.8046875 189.4296875 C-36.44721436 190.49082764 -36.08974121 191.55196777 -35.72143555 192.64526367 C-32.18859585 203.06183393 -28.38502748 213.24621144 -23.75 223.23046875 C-22.75226857 225.3876329 -21.796262 227.55480336 -20.8671875 229.7421875 C-20.15899557 231.40643855 -19.42604686 233.06196877 -18.6171875 234.6796875 C-18.11932641 238.90742596 -17.94325005 242.47832074 -20.0546875 246.2421875 C-23.76378071 248.32289832 -27.46987478 248.67270604 -31.6171875 247.6796875 C-35.03248449 244.97251631 -36.49413883 242.19715536 -38.0546875 238.1796875 C-38.47621094 237.1175 -38.89773437 236.0553125 -39.33203125 234.9609375 C-39.75613281 233.878125 -40.18023437 232.7953125 -40.6171875 231.6796875 C-41.44538849 229.67755675 -42.27863071 227.67750305 -43.1171875 225.6796875 C-43.74173828 224.17148437 -43.74173828 224.17148437 -44.37890625 222.6328125 C-45.15521444 220.78142766 -45.94714704 218.93643393 -46.76171875 217.1015625 C-54.60583558 199.15716145 -59.77790004 180.31671767 -64.0234375 161.24291992 C-64.52462482 159.07928272 -65.09843788 156.96008421 -65.703125 154.82421875 C-71.33192228 132.47475057 -69.45492341 108.13159466 -61.6171875 86.6796875 C-61.30910156 85.80441406 -61.00101562 84.92914063 -60.68359375 84.02734375 C-52.68368323 62.65869386 -39.97184453 42.2808653 -26.34375 24.08203125 C-24.54695242 21.67044196 -24.54695242 21.67044196 -23.015625 18.87109375 C-22.55414063 18.14792969 -22.09265625 17.42476562 -21.6171875 16.6796875 C-20.9571875 16.6796875 -20.2971875 16.6796875 -19.6171875 16.6796875 C-19.36839844 15.97457031 -19.11960938 15.26945313 -18.86328125 14.54296875 C-15.02665426 5.72714561 -10.0704081 -0.71726553 0 0 Z " fill="#FFF" transform="translate(154.6171875,-0.6796875)"/>
<path d="M0 0 C2.875 2.1875 2.875 2.1875 5 5 C5.763125 5.886875 6.52625 6.77375 7.3125 7.6875 C9 10 9 10 9 12 C9.66 12 10.32 12 11 12 C11.33 12.99 11.66 13.98 12 15 C12.98938679 16.01050175 13.99201408 17.00805022 15 18 C22.32457198 27.52467663 28.64502754 37.6505535 34.78515625 47.96533203 C35.8342753 49.72243778 36.89998486 51.46961813 37.96875 53.21484375 C59.04749734 88.13849559 65.3503758 125.07798311 55.59375 164.85327148 C55.07284607 166.90503845 54.53963153 168.95308649 54 171 C53.71382813 172.10085937 53.42765625 173.20171875 53.1328125 174.3359375 C47.89978341 193.46196416 41.48099957 212.57489467 33.125 230.56640625 C32.16876294 232.63493294 31.25754297 234.71186388 30.375 236.8125 C26.525 245.7375 26.525 245.7375 24 247 C19.77226154 247.49786109 16.20136676 247.67393745 12.4375 245.5625 C10.2520038 241.66661547 10.31063585 238.36360399 11 234 C12.02882081 230.84657289 13.53232444 227.96958263 15 225 C16.19143586 222.36494222 17.34625479 219.71424072 18.5 217.0625 C18.95693237 216.01606323 18.95693237 216.01606323 19.4230957 214.94848633 C22.73829164 207.33882832 25.85789754 199.81089763 28.15234375 191.82421875 C28.98558446 189.04802966 29.90086174 186.30695616 30.83837891 183.56445312 C43.63185206 146.06210968 46.59162246 112.10279093 29 76 C26.51377968 71.1572752 23.82596052 66.44269657 21.04345703 61.76513672 C20.03842892 60.06500727 19.06348044 58.34720577 18.08984375 56.62890625 C15.13529687 51.42760504 12.08883341 46.49918128 8.359375 41.81640625 C7 40 7 40 5.6953125 37.7734375 C3.40268684 34.02282871 0.77380484 30.56712263 -1.875 27.0625 C-2.65037109 26.02706055 -2.65037109 26.02706055 -3.44140625 24.97070312 C-5.81724923 21.81388405 -8.20547627 18.75501988 -10.8515625 15.8203125 C-13.15679665 12.79416876 -13.63883898 11.54379765 -13.5 7.8125 C-13.4896875 6.97332031 -13.479375 6.13414062 -13.46875 5.26953125 C-12.06202292 -1.54137236 -5.68900815 -0.97551903 0 0 Z " fill="#FFF" transform="translate(13,0)"/>
<path d="M0 0 C2.984375 2.01953125 2.984375 2.01953125 5.75 4.8125 C6.77275518 5.81970374 7.79621488 6.82619249 8.8203125 7.83203125 C9.33883789 8.35361816 9.85736328 8.87520508 10.39160156 9.41259766 C13.54009495 12.51999049 16.87353393 15.4301695 20.16699219 18.38208008 C25.86480516 23.56693474 25.86480516 23.56693474 26.3125 28.3125 C25.75791316 34.85662474 21.9397209 39.80021976 18.6015625 45.30078125 C17.02302233 47.96119896 15.53160871 50.65282797 14.0625 53.375 C11.871293 57.41809323 9.65193763 61.44193567 7.375 65.4375 C6.82585937 66.40558594 6.27671875 67.37367187 5.7109375 68.37109375 C1.68865435 74.55145119 1.68865435 74.55145119 -2 75.53125 C-2.66 75.5209375 -3.32 75.510625 -4 75.5 C-4.66 75.5103125 -5.32 75.520625 -6 75.53125 C-10.96523642 74.21235908 -13.38310558 69.05563074 -15.875 64.9375 C-16.22087158 64.36676758 -16.56674316 63.79603516 -16.9230957 63.20800781 C-20.11752578 57.89452958 -23.07634439 52.46524259 -26 47 C-26.89209316 45.37294372 -27.78771978 43.74781789 -28.6875 42.125 C-29.08839844 41.40054688 -29.48929688 40.67609375 -29.90234375 39.9296875 C-30.8051797 38.34249548 -31.76966311 36.7905294 -32.75 35.25 C-34.152764 32.72502481 -34.78376681 30.88310915 -35 28 C-33.71232806 23.66939381 -31.59230527 21.2426983 -28.375 18.125 C-27.47910156 17.25617187 -26.58320312 16.38734375 -25.66015625 15.4921875 C-22.78143937 12.79523982 -19.87831764 10.14921689 -16.86328125 7.60546875 C-14.97522689 6.01756708 -14.97522689 6.01756708 -13.23046875 4.23828125 C-12.65941406 3.68527344 -12.08835937 3.13226563 -11.5 2.5625 C-11.0153125 2.06878906 -10.530625 1.57507813 -10.03125 1.06640625 C-6.75887993 -0.65158803 -3.55104757 -0.67915505 0 0 Z M-8.5 24.25 C-9.41265625 24.87648438 -9.41265625 24.87648438 -10.34375 25.515625 C-12.28346725 27.25405083 -13.10638278 28.55407693 -14 31 C-13.4592838 32.99923999 -13.4592838 32.99923999 -12.2265625 34.890625 C-11.8140625 35.59960938 -11.4015625 36.30859375 -10.9765625 37.0390625 C-10.30753906 38.13347656 -10.30753906 38.13347656 -9.625 39.25 C-9.18671875 39.99507812 -8.7484375 40.74015625 -8.296875 41.5078125 C-7.21220164 43.34704125 -6.10792483 45.17468324 -5 47 C-4.34 47 -3.68 47 -3 47 C-1.4382623 44.42702218 0.09906742 41.84408538 1.625 39.25 C2.07101563 38.52039063 2.51703125 37.79078125 2.9765625 37.0390625 C3.3890625 36.33007812 3.8015625 35.62109375 4.2265625 34.890625 C4.61408691 34.24125977 5.00161133 33.59189453 5.40087891 32.92285156 C6.22869721 30.95099234 6.22869721 30.95099234 5.21435547 28.84960938 C3.85251799 26.77536716 2.53993853 25.65029678 0.5 24.25 C-0.1084375 23.82203125 -0.716875 23.3940625 -1.34375 22.953125 C-4.41679525 21.18467443 -5.82315492 22.36713439 -8.5 24.25 Z " fill="#FFF" transform="translate(84,1)"/>
</svg>
